<svg width="128" height="128" viewBox="0 0 128 128" fill="none" xmlns="http://www.w3.org/2000/svg">
<g clip-path="url(#clip0_2297_225)">
<g clip-path="url(#clip1_2297_225)">
<path d="M128.216 64.108C128.216 99.5376 99.4835 128.216 64.108 128.216C28.6785 128.216 0 99.4835 0 64.108C0 28.6785 28.7325 0 64.108 0C99.4835 0 128.216 28.6785 128.216 64.108Z" fill="white"/>
<path d="M70.5351 27.7063C69.995 27.5983 67.2946 27.1662 64.1081 27.1662C60.9216 27.1662 58.2212 27.5983 57.6811 27.7063C57.357 27.7603 57.249 27.4363 57.4651 27.2743C57.6811 27.1122 64.1081 22.1975 64.1081 22.1975C64.1081 22.1975 70.5351 27.1122 70.7511 27.2743C70.9672 27.4363 70.8592 27.7603 70.5351 27.7063ZM59.4094 59.4633C59.4094 59.4633 59.0853 59.5713 58.9773 59.8954C60.3275 60.9215 61.2456 63.2979 64.0541 63.2979C66.8625 63.2979 67.7807 60.9215 69.1309 59.8954C69.0229 59.5713 68.6988 59.4633 68.6988 59.4633C68.6988 59.4633 66.9165 59.8954 64.0541 59.8954C61.1916 59.8954 59.4094 59.4633 59.4094 59.4633ZM64.0541 55.5207C63.298 55.5207 63.0819 55.2506 62.5959 55.2506C62.1098 55.2506 61.0836 55.6827 60.8676 56.0068C60.8676 56.1688 60.9756 56.3308 61.0836 56.4928C62.2178 56.6549 62.7579 57.303 64.0541 57.303C65.3503 57.303 65.8904 56.6549 67.0246 56.4928C67.1866 56.3308 67.2406 56.1688 67.2406 56.0068C67.0246 55.6287 66.0524 55.2506 65.5123 55.2506C65.0262 55.1966 64.8642 55.5207 64.0541 55.5207ZM128.108 67.6186C128 69.1308 127.892 70.6971 127.73 72.1553C120.493 73.3435 117.9 66.9165 110.447 67.1865C110.879 68.7527 111.257 70.373 111.528 71.9933C117.684 71.9933 120.115 77.7181 126.974 76.854C126.596 78.5823 126.164 80.3106 125.678 82.0388C120.277 82.5789 118.387 77.2321 112.122 77.3401C112.176 78.2582 112.176 79.1224 112.176 80.0405C112.176 80.5266 112.176 81.0667 112.122 81.5527C117.468 81.4987 119.197 86.4135 124.273 86.1975C123.625 87.9257 122.923 89.6 122.167 91.2743C118.495 91.0582 117.252 86.4135 111.744 86.7916C111.582 87.9798 111.365 89.1679 111.095 90.3561C115.902 90.0321 116.928 94.4608 120.385 94.7848C119.521 96.4051 118.549 97.9713 117.576 99.4835C115.524 98.4034 113.742 95.1089 109.907 94.8928C110.285 93.6506 110.663 92.4084 110.933 91.1663C107.477 91.1663 103.588 89.816 100.294 86.8456C101.374 80.7426 91.9224 74.5857 91.9224 70.103C91.9224 65.2962 94.3528 62.5958 94.3528 56.0608C94.3528 51.2 91.9765 45.9612 88.4659 42.3966C87.7638 41.6945 87.0617 41.1544 86.2516 40.6143C89.4921 44.665 92.0305 49.4177 92.0305 54.9806C92.0305 61.1376 89.168 64.3781 89.168 70.0489C89.168 75.7198 97.4853 80.6346 97.4853 86.4675C97.4853 88.7899 96.7292 91.0042 94.3528 95.4329C98.0794 99.1595 102.94 101.158 106.073 101.158C107.099 101.158 107.639 100.834 108.017 100.078C108.341 99.3755 108.611 98.6734 108.881 97.9713C112.23 98.0793 113.796 101.158 115.632 102.4C114.606 103.75 113.526 105.1 112.392 106.397C111.149 104.992 109.475 102.67 106.991 102.022C106.559 102.886 106.073 103.696 105.587 104.56C107.693 105.154 109.151 107.261 110.285 108.665C109.097 109.907 107.801 111.095 106.505 112.284C105.695 111.041 104.398 109.421 102.994 108.503C102.454 109.205 101.914 109.907 101.374 110.609C102.616 111.419 103.642 112.932 104.344 114.12C102.832 115.362 101.266 116.496 99.6456 117.576C98.8355 111.041 89.9781 106.613 92.3545 99.0515C91.5444 100.402 90.6262 102.076 90.6262 104.074C90.6262 109.529 96.4591 113.904 96.8912 119.305C95.703 120.007 94.4608 120.709 93.1646 121.357C92.9486 115.362 86.7916 108.827 86.7916 103.966C86.7916 98.5114 93.9748 93.0025 93.9748 86.5215C93.9748 80.0405 85.7115 75.5578 85.7115 69.8869C85.7115 64.216 89.222 60.9755 89.222 53.6844C89.222 48.3376 86.6836 42.9907 82.795 39.5342C82.0929 38.9401 81.4448 38.454 80.5807 38.0219C84.2532 42.4506 86.4136 46.4473 86.4136 52.5502C86.4136 59.4093 82.3629 63.1899 82.3629 69.8869C82.3629 76.584 90.4642 80.3106 90.4642 86.5215C90.4642 92.7325 82.903 98.0253 82.903 104.452C82.903 110.285 89.5461 116.118 89.6541 123.031C88.1959 123.679 86.7376 124.273 85.2254 124.76C86.0895 117.792 78.5824 110.555 78.5824 104.83C78.5824 98.6194 86.4136 93.2186 86.4136 86.5215C86.4136 79.8245 78.4743 76.692 78.4743 69.7789C78.4743 62.8658 83.3891 59.0312 83.3891 51.416C83.3891 45.4751 80.4727 40.1283 76.152 36.8338C76.044 36.7797 75.99 36.6717 75.8819 36.6177C75.5039 36.2937 75.1258 36.6717 75.4499 37.0498C78.4743 40.8304 80.0946 44.665 80.0946 50.3359C80.0946 57.303 74.4777 62.9738 74.4777 69.7249C74.4777 77.7182 82.0389 79.9865 82.0389 86.5215C82.0389 93.0565 73.9376 98.2954 73.9376 105.262C73.9376 111.689 81.6068 118.873 80.2566 126.272C78.7444 126.65 77.1781 127.028 75.6119 127.298C77.0701 118.062 69.5629 111.365 69.5629 105.316C69.5629 98.7814 77.9343 92.8945 77.9343 86.5215C77.9343 80.4726 71.9393 78.5283 71.1292 72.3173C71.0212 71.4532 70.3191 70.8591 69.4009 71.0211C68.1587 71.2371 66.5925 72.0473 64.1621 72.0473C61.6777 72.0473 60.1655 71.2371 58.9233 71.0211C58.0051 70.8591 57.303 71.5072 57.195 72.3173C56.3849 78.5283 50.39 80.4726 50.39 86.5215C50.39 92.9485 58.7613 98.7814 58.7613 105.316C58.7613 111.365 51.2541 118.008 52.7123 127.298C51.1461 127.028 49.5798 126.65 48.0676 126.272C46.7714 118.819 54.3866 111.689 54.3866 105.262C54.3866 98.2954 46.2853 93.0565 46.2853 86.5215C46.2853 79.9865 53.8465 77.7182 53.8465 69.7249C53.8465 62.9738 48.2296 57.303 48.2296 50.3359C48.2296 44.665 49.8499 40.8304 52.8743 37.0498C53.1444 36.6717 52.8203 36.3477 52.4423 36.6177C52.3343 36.6717 52.2802 36.7797 52.1722 36.8338C47.9056 40.1283 44.9351 45.4751 44.9351 51.416C44.9351 59.0312 49.8499 62.8658 49.8499 69.7789C49.8499 76.692 41.9106 79.8245 41.9106 86.5215C41.9106 93.2186 49.7419 98.6194 49.7419 104.83C49.7419 110.555 42.2347 117.738 43.0988 124.76C41.5866 124.219 40.1283 123.679 38.6701 123.031C38.7781 116.118 45.4212 110.285 45.4212 104.452C45.4212 98.0253 37.86 92.7865 37.86 86.5215C37.86 80.2565 45.9613 76.584 45.9613 69.8869C45.9613 63.1899 41.9106 59.4093 41.9106 52.5502C41.9106 46.4473 44.071 42.4506 47.7435 38.0219C46.9334 38.454 46.2313 38.9401 45.5292 39.5342C41.6406 42.9907 39.1022 48.3916 39.1022 53.6844C39.1022 60.9755 42.6127 64.216 42.6127 69.8869C42.6127 75.5578 34.3494 80.0405 34.3494 86.5215C34.3494 93.0025 41.5326 98.4574 41.5326 103.966C41.5326 108.881 35.3756 115.416 35.1596 121.357C33.9174 120.709 32.6752 120.061 31.433 119.305C31.9191 113.85 37.752 109.529 37.752 104.074C37.752 102.076 36.8338 100.402 36.0237 99.0515C38.4001 106.613 29.5427 111.095 28.7326 117.576C27.1123 116.496 25.5461 115.362 24.0338 114.12C24.7359 112.932 25.8161 111.419 27.0043 110.609C26.4642 109.907 25.8701 109.259 25.384 108.503C23.9258 109.367 22.6836 110.987 21.8735 112.284C20.5773 111.149 19.2811 109.907 18.0929 108.665C19.2271 107.261 20.6853 105.1 22.7916 104.56C22.3056 103.75 21.8195 102.886 21.3874 102.022C18.903 102.67 17.2288 104.992 15.9866 106.397C14.8524 105.1 13.7722 103.804 12.7461 102.4C14.6364 101.158 16.1486 98.1333 19.5511 97.9713C19.8212 98.6734 20.1452 99.3755 20.4153 100.078C20.7933 100.888 21.3334 101.158 22.3596 101.158C25.4921 101.158 30.3528 99.1055 34.0794 95.4329C31.649 91.0042 30.9469 88.7899 30.9469 86.4675C30.9469 80.6346 39.2642 75.7198 39.2642 70.0489C39.2642 64.3781 36.4018 61.1376 36.4018 54.9806C36.4018 49.4177 38.8862 44.665 42.1807 40.6143C41.3705 41.1004 40.6684 41.6945 39.9663 42.3966C36.4018 45.9612 34.0794 51.254 34.0794 56.0608C34.0794 62.5958 36.5098 65.2422 36.5098 70.103C36.5098 74.5857 27.0583 80.7426 28.1385 86.8456C24.844 89.87 20.9013 91.1663 17.4448 91.1663C17.7689 92.4084 18.0929 93.6506 18.471 94.8928C14.5824 95.1089 12.8001 98.4034 10.8018 99.4835C9.77561 97.9713 8.85747 96.4051 7.99333 94.7848C11.4499 94.4068 12.476 89.9781 17.2828 90.3561C17.0127 89.1679 16.7967 87.9798 16.6347 86.7916C11.0718 86.4135 9.82962 91.1122 6.21105 91.2743C5.45494 89.6 4.75283 87.9257 4.10473 86.1975C9.18152 86.4135 10.9098 81.4987 16.2026 81.5527C16.2026 81.0667 16.2026 80.5806 16.2026 80.0405C16.2026 79.1224 16.2566 78.2582 16.2566 77.3401C9.99165 77.1781 8.10135 82.5789 2.70051 82.0388C2.21443 80.3646 1.78236 78.6363 1.4043 76.854C8.20937 77.7181 10.6938 71.9392 16.8507 71.9933C17.1208 70.373 17.4988 68.7527 17.9309 67.1865C10.4777 66.8625 7.88532 73.3435 0.648185 72.1553C0.432152 70.643 0.324135 69.1308 0.216118 67.6186C8.64143 68.5367 11.8279 61.6236 19.4971 62.4878C20.1992 60.6515 21.0634 58.8692 22.0355 57.1409C12.422 55.4667 9.12751 63.5139 0.162109 62.2717C0.918227 27.7063 29.2727 0 64.0541 0C98.8895 0 127.19 27.7063 128.162 62.3257C119.197 63.5679 115.902 55.5207 106.289 57.1949C107.261 58.9232 108.071 60.7055 108.827 62.5418C116.496 61.6236 119.629 68.5907 128.108 67.6186ZM36.5098 40.7224C31.8111 38.7781 26.0862 39.2641 21.1714 42.3966C20.4153 37.8599 17.9309 33.8093 14.4203 31.3789C13.9343 31.0549 13.4482 31.3789 13.4482 31.919C14.2043 41.5325 8.58743 49.8498 1.67435 57.1949C8.80346 59.3553 14.8524 50.1738 24.0338 53.3603C27.4364 48.4456 31.649 44.1249 36.5098 40.7224ZM64.0541 34.9435C58.1132 34.9435 53.0904 38.292 51.7942 42.6667C51.6862 42.9907 51.8482 43.2068 52.2262 43.0447C53.3064 42.5587 54.4946 42.3426 55.8448 42.3426C58.2752 42.3426 60.4355 43.2608 61.6777 44.773C62.2178 46.6093 62.2718 49.3097 61.6237 50.8219C60.6516 50.6059 60.2735 49.8498 59.3013 49.8498C58.3292 49.8498 57.5731 50.5519 55.8988 50.5519C54.2246 50.5519 54.0625 49.7418 52.9824 49.7418C51.6862 49.7418 51.4701 51.038 51.4701 52.5502C51.4701 59.1933 57.5731 68.3207 64.0541 68.3207C70.5351 68.3207 76.6381 59.1933 76.6381 52.5502C76.6381 51.038 76.314 49.7958 75.0178 49.6338C74.3697 50.1198 73.7216 50.5519 72.2094 50.5519C70.5351 50.5519 70.103 49.8498 69.1309 49.8498C67.9427 49.8498 68.0507 52.3342 66.6465 52.4962C65.7284 50.2819 65.6743 47.3654 66.4305 44.827C67.6727 43.2608 69.833 42.3966 72.2634 42.3966C73.5596 42.3966 74.8018 42.6127 75.8819 43.0987C76.26 43.2608 76.422 43.0447 76.314 42.7207C75.0178 38.292 69.995 34.9435 64.0541 34.9435ZM73.5596 44.4489C72.1013 44.4489 70.4811 44.881 69.4009 46.0692C69.2929 46.3933 69.2929 46.8793 69.4549 47.1494C72.0473 46.2852 74.3157 46.2312 75.4499 47.4734C76.044 46.9333 76.206 46.4473 76.206 45.9072C76.206 45.043 75.2878 44.4489 73.5596 44.4489ZM52.7123 47.4734C53.9545 46.2312 56.6009 46.2852 59.3013 47.2574C59.4094 45.9072 56.979 44.3949 54.5486 44.3949C52.7663 44.3949 51.9022 44.989 51.9022 45.8532C51.9562 46.4473 52.1182 46.9333 52.7123 47.4734ZM93.7587 25.0059C89.06 25.33 84.9554 26.9502 81.6608 29.6506C83.0651 25.654 84.8473 22.1975 87.1157 18.8489C81.1208 19.497 76.152 21.6574 72.4794 25.438L69.617 17.9308L75.9359 12.3139L67.4566 11.7198L64.0541 3.8346L60.6516 11.7198L52.1722 12.3139L58.4912 17.9308L55.6288 25.438C51.9562 21.7114 46.9874 19.497 40.9925 18.8489C43.2608 22.1975 45.0431 25.708 46.4473 29.6506C43.1528 26.9502 39.0482 25.33 34.3494 25.0059C37.1579 28.6245 39.6423 32.5131 41.5326 36.6717C41.7486 37.1578 42.1807 37.3198 42.6667 37.0498C49.0938 33.8633 56.3309 32.027 64.0541 32.027C71.7233 32.027 78.9604 33.8093 85.4414 37.0498C85.9275 37.3198 86.3596 37.1578 86.5756 36.6717C88.4119 32.5131 90.9503 28.6245 93.7587 25.0059ZM104.02 53.3603C113.256 50.1738 119.305 59.3013 126.434 57.1949C119.521 49.8498 113.904 41.5325 114.66 31.919C114.714 31.3789 114.174 31.0549 113.742 31.3789C110.231 33.8093 107.747 37.8599 106.991 42.3966C102.13 39.2641 96.4051 38.8321 91.6524 40.7224C96.5132 44.1249 100.672 48.4456 104.02 53.3603Z" fill="#00643C"/>
</g>
</g>
<defs>
<clipPath id="clip0_2297_225">
<rect width="128" height="128" fill="white"/>
</clipPath>
<clipPath id="clip1_2297_225">
<rect width="128.216" height="129.782" fill="white"/>
</clipPath>
</defs>
</svg>
